<svg xmlns="http://www.w3.org/2000/svg" viewBox="0 0 400 400">
  <rect x="0" y="0" width="100%" height="100%" fill="#2E3440"/>
  <g id="julia-logo">
    <circle cx="200" cy="200" r="150" fill="#389826"/>
    <circle cx="200" cy="200" r="120" fill="#9558B2"/>
    <circle cx="200" cy="200" r="70" fill="#389826"/>
    <path d="M 180 220 Q 200 240 220 220 Q 240 200 220 180 Q 200 160 180 180 Q 160 200 180 220 Z" fill="#b03e36"/>
    <path d="M 165 165 Q 180 150 195 165 Q 210 180 195 195 Q 180 210 165 195 Q 150 180 165 165 Z" fill="#4d63d4"/>
    <path d="M 235 165 Q 250 150 265 165 Q 280 180 265 195 Q 250 210 235 195 Q 220 180 235 165 Z" fill="#9558B2"/>
  </g>
  <g id="slugify-text">
    <text x="200" y="280" font-size="50" font-weight="bold" fill="#fff" text-anchor="middle" alignment-baseline="middle">Slugify.jl</text>
  </g>
</svg>
